<?xml version="1.0" encoding="UTF-8" standalone="no"?>
<!DOCTYPE svg PUBLIC "-//W3C//DTD SVG 1.1//EN" "http://www.w3.org/Graphics/SVG/1.1/DTD/svg11.dtd">
<svg width="7em" height="7em" viewBox="0 0 512 512" version="1.1" xmlns="http://www.w3.org/2000/svg" xmlns:xlink="http://www.w3.org/1999/xlink" xml:space="preserve" xmlns:serif="http://www.serif.com/" style="fill-rule:evenodd;clip-rule:evenodd;stroke-linecap:square;stroke-linejoin:round;stroke-miterlimit:1.5;">
    <g transform="matrix(1,0,0,1,105.987,95.9923)">
        <g transform="matrix(1,0,0,1,-1800,-290.006)">
            <path d="M1972.42,690.362L1927.29,690.362L1904.73,600.115C1904.73,600.115 2001.22,599.857 1994.98,600.115C1994.65,600.128 1972.45,690.219 1972.42,690.362ZM2087.95,524.343C2087.73,524.583 2135.81,604.111 2135.81,604.111L2103.91,636.018L2024.14,588.157C2024.14,588.157 2092.19,519.744 2087.95,524.343ZM1875.66,587.952C1875.42,587.731 1795.89,635.812 1795.89,635.812L1763.98,603.905L1811.84,524.137C1811.84,524.137 1880.26,592.186 1875.66,587.952ZM1950,300C2032.79,300 2100,367.213 2100,450C2100,532.787 2032.79,600 1950,600C1867.21,600 1800,532.787 1800,450C1800,367.213 1867.21,300 1950,300ZM1950,343.955C2008.53,343.955 2056.05,391.472 2056.05,450C2056.05,508.528 2008.53,556.045 1950,556.045C1891.47,556.045 1843.95,508.528 1843.95,450C1843.95,391.472 1891.47,343.955 1950,343.955ZM2100.12,405.022C2100.13,405.347 2190.36,427.584 2190.36,427.584L2190.36,472.707L2100.12,495.269C2100.12,495.269 2099.86,398.776 2100.12,405.022ZM1799.88,494.978C1799.87,494.653 1709.64,472.416 1709.64,472.416L1709.64,427.293L1799.88,404.731C1799.88,404.731 1800.14,501.224 1799.88,494.978ZM1812.05,375.657C1812.27,375.417 1764.19,295.889 1764.19,295.889L1796.1,263.982L1875.86,311.843C1875.86,311.843 1807.81,380.256 1812.05,375.657ZM2024.34,312.048C2024.58,312.269 2104.11,264.188 2104.11,264.188L2136.02,296.095L2088.16,375.863C2088.16,375.863 2019.74,307.814 2024.34,312.048ZM1905.02,299.885C1905.35,299.872 1927.58,209.638 1927.58,209.638L1972.71,209.638L1995.27,299.885C1995.27,299.885 1898.78,300.143 1905.02,299.885Z" style="fill:rgb(93,93,93);stroke:rgb(93,93,93);stroke-width:31.25px;"/>
        </g>
    </g>
</svg>
