<?xml version="1.0" encoding="UTF-8" standalone="no"?><!DOCTYPE svg PUBLIC "-//W3C//DTD SVG 1.1//EN" "http://www.w3.org/Graphics/SVG/1.1/DTD/svg11.dtd"><svg width="100%" height="100%" viewBox="0 0 204 118" version="1.1" xmlns="http://www.w3.org/2000/svg" xmlns:xlink="http://www.w3.org/1999/xlink" xml:space="preserve" xmlns:serif="http://www.serif.com/" style="fill-rule:evenodd;clip-rule:evenodd;stroke-linecap:round;stroke-linejoin:round;stroke-miterlimit:1.5;"><g><path d="M61.07,70.484l20.285,11.711l0,23.423l-20.285,11.711l-20.284,-11.711l0,-23.423l20.284,-11.711Z" style="fill:#ff1800;stroke:#000;stroke-width:0.43px;"/><path d="M81.355,35.35l20.284,11.712l0,23.422l-20.284,11.711l-20.285,-11.711l0,-23.422l20.285,-11.712Z" style="fill:#fffd00;stroke:#000;stroke-width:0.43px;"/><path d="M101.639,70.484l20.285,11.711l0,23.423l-20.285,11.711l-20.284,-11.711l0,-23.423l20.284,-11.711Z" style="fill:#ff8200;stroke:#000;stroke-width:0.43px;"/><path d="M121.924,35.35l20.284,11.712l0,23.422l-20.284,11.711l-20.285,-11.711l0,-23.422l20.285,-11.712Z" style="fill:#84ff00;stroke:#000;stroke-width:0.43px;"/><path d="M142.208,0.217l20.285,11.711l0,23.422l-20.285,11.712l-20.284,-11.712l0,-23.422l20.284,-11.711Z" style="fill:#00ffc3;stroke:#000;stroke-width:0.43px;"/><path d="M162.493,35.403l20.284,11.711l0,23.423l-20.284,11.711l-20.285,-11.711l0,-23.423l20.285,-11.711Z" style="fill:#0084ff;stroke:#000;stroke-width:0.43px;"/><path d="M182.777,70.537l20.285,11.711l0,23.422l-20.285,11.712l-20.284,-11.712l0,-23.422l20.284,-11.711Z" style="fill:#9200ff;stroke:#000;stroke-width:0.43px;"/><path d="M20.501,70.484l20.285,11.711l0,23.423l-20.285,11.711l-20.284,-11.711l0,-23.423l20.284,-11.711Z" style="fill:#ff00d9;stroke:#000;stroke-width:0.43px;"/></g></svg>