<?xml version="1.0" encoding="UTF-8" standalone="no"?>
<!DOCTYPE svg PUBLIC "-//W3C//DTD SVG 1.1//EN" "http://www.w3.org/Graphics/SVG/1.1/DTD/svg11.dtd">
<svg
  width="10em"
  height="10em"
  viewBox="0 0 237 153"
  version="1.1"
  xmlns="http://www.w3.org/2000/svg"
  xmlns:xlink="http://www.w3.org/1999/xlink"
  xml:space="preserve"
  xmlns:serif="http://www.serif.com/"
  style="fill-rule:evenodd;clip-rule:evenodd;stroke-linecap:square;stroke-linejoin:round;stroke-miterlimit:1.5;">
  <g><path d="M212.709,12.588c0,-6.12 -4.968,-11.088 -11.088,-11.088l-166.888,0c-6.119,0 -11.087,4.968 -11.087,11.088l0,127.507l189.063,0l0,-127.507Z" style="fill:#fff;"/>
    <clipPath id="_clip1"><path d="M212.709,12.588c0,-6.12 -4.968,-11.088 -11.088,-11.088l-166.888,0c-6.119,0 -11.087,4.968 -11.087,11.088l0,127.507l189.063,0l0,-127.507Z"/></clipPath>
    <g clip-path="url(#_clip1)">
      <g><rect x="23.646" y="1.5" width="189.063" height="138.595" style="fill:#383f51;"/>
        <clipPath id="_clip2"><rect x="23.646" y="1.5" width="189.063" height="138.595"/></clipPath>
        <g clip-path="url(#_clip2)">
          <g><path
            d="M33.524,23.26l-2.586,0l-1.292,-4.905c0,0 5.528,-0.014 5.17,0c-0.018,0.001 -1.29,4.897 -1.292,4.905Zm6.619,-9.023c-0.013,0.013 2.742,4.335 2.742,4.335l-1.828,1.734l-4.57,-2.601c0,0 3.898,-3.718 3.656,-3.468Zm-12.163,3.457c-0.014,-0.012 -4.57,2.601 -4.57,2.601l-1.828,-1.734l2.742,-4.336c0,0 3.92,3.699 3.656,3.469Zm4.259,-15.651c4.743,0 8.594,3.653 8.594,8.153c0,4.499 -3.851,8.153 -8.594,8.153c-4.743,0 -8.593,-3.654 -8.593,-8.153c0,-4.5 3.85,-8.153 8.593,-8.153Zm0,2.389c3.353,0 6.076,2.583 6.076,5.764c0,3.181 -2.723,5.764 -6.076,5.764c-3.353,0 -6.075,-2.583 -6.075,-5.764c0,-3.181 2.722,-5.764 6.075,-5.764Zm8.601,3.319c0,0.018 5.17,1.227 5.17,1.227l0,2.452l-5.17,1.226c0,0 -0.015,-5.244 0,-4.905Zm-17.201,4.89c-0.001,-0.018 -5.17,-1.227 -5.17,-1.227l0,-2.452l5.17,-1.227c0,0 0.015,5.245 0,4.906Zm0.697,-6.486c0.012,-0.013 -2.742,-4.335 -2.742,-4.335l1.828,-1.734l4.57,2.601c0,0 -3.899,3.718 -3.656,3.468Zm12.163,-3.457c0.013,0.012 4.57,-2.601 4.57,-2.601l1.828,1.734l-2.742,4.335c0,0 -3.92,-3.698 -3.656,-3.468Zm-6.837,-0.661c0.019,-0.001 1.293,-4.905 1.293,-4.905l2.585,0l1.293,4.905c0,0 -5.528,0.014 -5.171,0Z"
            style="fill:#5d5d5d;stroke:#5d5d5d;stroke-width:1.75px;"/><path
            d="M58.959,34.296l-2.553,0.39l-2.099,-4.647c0,0 5.456,-0.849 5.105,-0.781c-0.019,0.004 -0.453,5.03 -0.453,5.038Zm5.02,-9.908c-0.01,0.015 3.435,3.866 3.435,3.866l-1.514,1.988l-4.948,-1.878c0,0 3.225,-4.26 3.027,-3.976Zm-11.427,5.25c-0.016,-0.01 -4.075,3.258 -4.075,3.258l-2.096,-1.435l1.979,-4.695c0,0 4.49,3.059 4.192,2.872Zm1.578,-16.094c4.682,-0.717 9.097,2.308 9.852,6.75c0.756,4.443 -2.433,8.631 -7.115,9.347c-4.683,0.717 -9.098,-2.308 -9.853,-6.75c-0.755,-4.443 2.433,-8.631 7.116,-9.347Zm0.401,2.358c3.31,-0.506 6.431,1.632 6.965,4.773c0.534,3.14 -1.72,6.101 -5.03,6.608c-3.311,0.506 -6.432,-1.632 -6.966,-4.773c-0.534,-3.14 1.72,-6.101 5.031,-6.608Zm9.047,1.978c0.004,0.017 5.311,0.43 5.311,0.43l0.411,2.421l-4.898,1.991c0,0 -0.895,-5.175 -0.824,-4.842Zm-16.16,7.425c-0.004,-0.017 -5.31,-0.43 -5.31,-0.43l-0.412,-2.421l4.899,-1.991c0,0 0.894,5.175 0.823,4.842Zm-0.401,-6.508c0.011,-0.014 -3.434,-3.866 -3.434,-3.866l1.513,-1.988l4.949,1.878c0,0 -3.225,4.26 -3.028,3.976Zm11.428,-5.25c0.015,0.01 4.075,-3.258 4.075,-3.258l2.096,1.436l-1.98,4.694c0,0 -4.49,-3.059 -4.191,-2.872Zm-6.86,0.38c0.018,-0.004 0.453,-5.038 0.453,-5.038l2.552,-0.39l2.099,4.647c0,0 -5.455,0.849 -5.104,0.781Z"
            style="fill:#5d5d5d;stroke:#5d5d5d;stroke-width:1.76px;"/><path
            d="M85.149,22.389l-2.417,0.871l-3.044,-4.151c0,0 5.163,-1.874 4.834,-1.741c-0.017,0.007 0.626,5.013 0.627,5.021Zm2.812,-10.664c-0.007,0.016 4.185,3.129 4.185,3.129l-1.06,2.237l-5.246,-0.893c0,0 2.254,-4.789 2.121,-4.473Zm-10.077,7.327c-0.018,-0.006 -3.3,3.971 -3.3,3.971l-2.357,-1.006l0.941,-4.976c0,0 5.048,2.138 4.716,2.011Zm-1.874,-16.065c4.434,-1.597 9.401,0.521 11.084,4.728c1.684,4.206 -0.549,8.918 -4.984,10.515c-4.434,1.597 -9.401,-0.521 -11.084,-4.728c-1.684,-4.206 0.549,-8.918 4.984,-10.515Zm0.893,2.233c3.135,-1.129 6.647,0.369 7.837,3.343c1.19,2.974 -0.389,6.305 -3.523,7.434c-3.135,1.129 -6.647,-0.369 -7.837,-3.343c-1.19,-2.974 0.389,-6.305 3.523,-7.434Zm9.283,0.207c0.007,0.016 5.292,-0.595 5.292,-0.595l0.918,2.293l-4.375,2.888c0,0 -1.976,-4.898 -1.835,-4.586Zm-14.252,10.363c-0.007,-0.016 -5.292,0.595 -5.292,0.595l-0.918,-2.293l4.375,-2.888c0,0 1.976,4.898 1.835,4.586Zm-1.775,-6.298c0.007,-0.016 -4.185,-3.129 -4.185,-3.129l1.06,-2.237l5.245,0.893c0,0 -2.253,4.789 -2.12,4.473Zm10.077,-7.327c0.018,0.006 3.3,-3.971 3.3,-3.971l2.357,1.006l-0.941,4.976c0,0 -5.048,-2.138 -4.716,-2.011Zm-6.638,1.684c0.017,-0.007 -0.627,-5.021 -0.627,-5.021l2.417,-0.871l3.044,4.151c0,0 -5.163,1.874 -4.834,1.741Z"
            style="fill:#5d5d5d;stroke:#5d5d5d;stroke-width:1.78px;"/></g>
        </g>
        <text x="81.343px" y="65.893px" style="font-family:'Oxygen-Regular', 'Oxygen';font-size:8.153px;fill:#d9d9d9;">H<tspan
          x="87.587px 89.731px 91.85px 93.995px 96.26px 98.035px 105.475px 107.62px 112.831px 114.975px 119.944px 124.551px 128.84px 130.984px 136.38px 141.046px 145.654px 147.798px "
          y="65.893px 65.893px 65.893px 65.893px 65.893px 65.893px 65.893px 65.893px 65.893px 65.893px 65.893px 65.893px 65.893px 65.893px 65.893px 65.893px 65.893px 65.893px ">i, I&apos;m Vinay Bhaip</tspan>.</text>
        <text x="73.061px" y="76.092px" style="font-family:'Oxygen-Regular', 'Oxygen';font-size:4.152px;fill:#d9d9d9;">I&apos;<tspan
          x="75.119px 78.908px 80px 82.347px 83.439px 85.476px 88.043px 90.609px 92.986px 95.552px 99.342px 101.908px 103.46px 105.828px 106.92px 109.266px 110.784px 111.876px 114.225px 115.4px 118.58px 121.202px 123.825px "
          y="76.092px 76.092px 76.092px 76.092px 76.092px 76.092px 76.092px 76.092px 76.092px 76.092px 76.092px 76.092px 76.092px 76.092px 76.092px 76.092px 76.092px 76.092px 76.092px 76.092px 76.092px 76.092px 76.092px ">m a sophomore at TJHSST</tspan>, a<tspan
          x="130.499px 133.029px 135.617px 136.709px 137.863px 138.955px 140.171px 142.715px 144.89px 147.258px 148.35px 149.844px 152.411px 153.503px 155.572px 158.138px 160.726px "
          y="76.092px 76.092px 76.092px 76.092px 76.092px 76.092px 76.092px 76.092px 76.092px 76.092px 76.092px 76.092px 76.092px 76.092px 76.092px 76.092px 76.092px ">nd I love to code</tspan>
        </text>
        <text id="A" x="40.407px" y="69.836px" style="font-family:'Oxygen-Regular', 'Oxygen';font-size:4.757px;fill:#b7444a;">A<tspan x="43.595px 46.57px 49.511px 52.205px " y="69.836px 69.836px 69.836px 69.836px ">bout</tspan>
        </text><path d="M40.833,59.993l-8.594,8.103l8.594,8.081" style="fill:none;stroke:#b7444a;stroke-width:1.75px;"/>
        <text x="177.928px" y="69.118px" style="font-family:'Oxygen-Regular', 'Oxygen';font-size:4.757px;fill:#b7444a;">P<tspan x="180.766px 182.543px 185.484px 186.574px 189.287px 191.657px " y="69.118px 69.118px 69.118px 69.118px 69.118px 69.118px ">roject</tspan>s</text><path d="M195.521,59.871l8.594,8.103l-8.594,8.081" style="fill:none;stroke:#b7444a;stroke-width:1.75px;"/>
        <text x="109.319px" y="120.069px" style="font-family:'Oxygen-Regular', 'Oxygen';font-size:4.757px;fill:#b7444a;">C<tspan x="112.478px 115.419px 118.318px 120.049px 122.738px 125.108px " y="120.069px 120.069px 120.069px 120.069px 120.069px 120.069px ">ontact</tspan>
        </text><path d="M126.707,123.79l-8.541,8.153l-8.519,-8.153" style="fill:none;stroke:#b7444a;stroke-width:1.75px;"/>
        <g><path d="M118.621,107.098l8.593,0l0,-6.829l0,-11.884l-5.411,0" style="fill:none;stroke:#d9d9d9;stroke-width:0.36px;stroke-linejoin:miter;stroke-miterlimit:3;"/><path d="M115.438,88.266l-5.411,0l0,18.832l8.594,0" style="fill:none;stroke:#d9d9d9;stroke-width:0.36px;stroke-linejoin:miter;stroke-miterlimit:3;"/><path
          d="M111.236,93.494l-0.309,0l4.137,11.777l0,-0.578l-3.828,-11.199Zm7.657,0l0.309,0l-3.288,9.358l-0.85,2.419l0,-0.578c0.016,-0.046 2.569,-7.512 3.829,-11.199Z"
          style="fill:#d9d9d9;fill-rule:nonzero;stroke:#d9d9d9;stroke-width:0.16px;stroke-linecap:butt;stroke-miterlimit:1.41421;"/><path d="M124.35,96.215l-3.501,-2.416l0,-0.302l1.315,0.936l2.504,1.782l-3.819,2.718l0,-0.302l3.501,-2.416Z" style="fill:#d9d9d9;fill-rule:nonzero;stroke:#d9d9d9;stroke-width:0.16px;stroke-linecap:butt;stroke-miterlimit:1.41421;"/><path d="M125.808,102.556l-4.959,-2.415l0,-0.302l5.41,2.717l-5.41,2.718l0,-0.302l4.959,-2.416Z" style="fill:#d9d9d9;fill-rule:nonzero;stroke:#d9d9d9;stroke-width:0.16px;stroke-linecap:butt;stroke-miterlimit:1.41421;"/><path d="M116.209,105.267l4.012,-11.77l0.309,0l-4.106,11.77l-0.215,0Z" style="fill:#d9d9d9;fill-rule:nonzero;stroke:#d9d9d9;stroke-width:0.16px;stroke-linecap:butt;stroke-miterlimit:1.41421;"/></g>
        <g><path d="M193.373,12.914l-12.891,0" style="fill:#252525;stroke:#5d5d5d;stroke-width:2.32px;"/><path d="M193.373,17.805l-12.891,0" style="fill:#252525;stroke:#5d5d5d;stroke-width:2.32px;"/><path d="M193.373,22.697l-12.891,0" style="fill:#252525;stroke:#5d5d5d;stroke-width:2.32px;"/></g>
        <text x="32.695px" y="131.13px" style="font-family:'Oxygen-Bold', 'Oxygen';font-weight:700;font-size:8.153px;fill:#5d5d5d;">R<tspan x="38.544px 43.399px 47.533px 52.413px 60.432px " y="131.13px 131.13px 131.13px 131.13px 131.13px ">esume</tspan>
        </text>
        <text x="173.633px" y="131.13px" style="font-family:'Oxygen-Bold', 'Oxygen';font-weight:700;font-size:8.153px;fill:#5d5d5d;">G<tspan x="179.784px 182.054px 185.424px 191.802px 196.682px " y="131.13px 131.13px 131.13px 131.13px 131.13px ">itHub</tspan>
        </text>
      </g>
    </g><path d="M212.709,12.588c0,-6.12 -4.968,-11.088 -11.088,-11.088l-166.888,0c-6.119,0 -11.087,4.968 -11.087,11.088l0,127.507l189.063,0l0,-127.507Z" style="fill:none;stroke:#000;stroke-width:3px;stroke-linecap:butt;"/><path
      d="M234.854,142.861c0,-1.526 -1.239,-2.766 -2.765,-2.766l-227.824,0c-1.526,0 -2.765,1.24 -2.765,2.766l0,5.531c0,1.526 1.239,2.765 2.765,2.765l227.824,0c1.526,0 2.765,-1.239 2.765,-2.765l0,-5.531Z"
      style="fill:#a2a2a2;stroke:#000;stroke-width:3px;stroke-linecap:butt;"/><path
      d="M136.127,141.178c0,-0.597 -0.485,-1.083 -1.082,-1.083l-33.735,0c-0.598,0 -1.083,0.486 -1.083,1.083l0,2.166c0,0.597 0.485,1.083 1.083,1.083l33.735,0c0.597,0 1.082,-0.486 1.082,-1.083l0,-2.166Z"
      style="fill:#c1c1c1;stroke:#000;stroke-width:2.45px;stroke-linecap:butt;"/></g>
</svg>
