<?xml version="1.0" encoding="UTF-8" standalone="no"?>
<!DOCTYPE svg PUBLIC "-//W3C//DTD SVG 1.1//EN" "http://www.w3.org/Graphics/SVG/1.1/DTD/svg11.dtd">
<svg width="9em" height="9em" viewBox="0 0 400 360" version="1.1" xmlns="http://www.w3.org/2000/svg" xmlns:xlink="http://www.w3.org/1999/xlink" xml:space="preserve" xmlns:serif="http://www.serif.com/" style="fill-rule:evenodd;clip-rule:evenodd;stroke-linecap:square;stroke-miterlimit:3;">
    <g transform="matrix(1,0,0,1,-1497.45,-1586.11)">
        <g transform="matrix(0.555521,0,0,0.555521,1518.85,1620.69)">
            <g transform="matrix(1,0,0,1,-50.002,-238.623)">
                <path d="M300.019,818.623L570.036,818.623L570.036,592.424L570.036,198.833L400.025,198.833" style="fill:none;stroke:rgb(217,217,217);stroke-width:11.72px;"/>
            </g>
            <g transform="matrix(1,0,0,1,-50.002,-238.623)">
                <path d="M200.007,194.91L30.002,194.91L30.002,818.623L300.019,818.623" style="fill:none;stroke:rgb(217,217,217);stroke-width:11.72px;"/>
            </g>
            <g transform="matrix(1,0,0,1,-51.7326,-238.736)">
                <path d="M69.712,368.164L60.009,368.164L190.015,758.211L190.015,739.091L69.712,368.164ZM310.317,368.164L320.02,368.164L216.719,678.091L190.015,758.211L190.015,739.091C190.511,737.562 270.709,490.286 310.317,368.164Z" style="fill:rgb(217,217,217);fill-rule:nonzero;stroke:rgb(217,217,217);stroke-width:5.25px;stroke-linecap:butt;stroke-linejoin:round;stroke-miterlimit:1.41421;"/>
            </g>
            <g transform="matrix(1,0,0,1,-50.002,-238.623)">
                <path d="M480.026,458.175L370.022,378.165L370.022,368.164L411.338,399.153L490.026,458.175L370.022,548.186L370.022,538.184L480.026,458.175Z" style="fill:rgb(217,217,217);fill-rule:nonzero;stroke:rgb(217,217,217);stroke-width:5.25px;stroke-linecap:butt;stroke-linejoin:round;stroke-miterlimit:1.41421;"/>
            </g>
            <g transform="matrix(1,0,0,1,-50.002,-238.623)">
                <path d="M525.861,668.2L370.022,588.19L370.022,578.189L540.028,668.2L370.022,758.211L370.022,748.21L525.861,668.2Z" style="fill:rgb(217,217,217);fill-rule:nonzero;stroke:rgb(217,217,217);stroke-width:5.25px;stroke-linecap:butt;stroke-linejoin:round;stroke-miterlimit:1.41421;"/>
            </g>
            <g transform="matrix(1,0,0,1,-50.002,-238.623)">
                <path d="M224.241,757.984L350.312,368.164L360.017,368.164L231.009,757.984L224.241,757.984Z" style="fill:rgb(217,217,217);fill-rule:nonzero;stroke:rgb(217,217,217);stroke-width:5.25px;stroke-linecap:butt;stroke-linejoin:round;stroke-miterlimit:1.41421;"/>
            </g>
        </g>
    </g>
</svg>
